<svg width="13" height="13" viewBox="0 0 13 13" fill="none" xmlns="http://www.w3.org/2000/svg">
<path d="M6.5 9.8215L3.21379 6.53621L3.87121 5.86764L6.03571 8.03214V0H6.96429V8.03214L9.12786 5.86857L9.78621 6.53621L6.5 9.8215ZM1.50057 13C1.07281 13 0.715928 12.857 0.429928 12.571C0.143928 12.285 0.000619048 11.9278 0 11.4994V9.2495H0.928571V11.4994C0.928571 11.6424 0.988 11.7737 1.10686 11.8931C1.22571 12.0126 1.35664 12.072 1.49964 12.0714H11.5004C11.6427 12.0714 11.7737 12.012 11.8931 11.8931C12.0126 11.7743 12.072 11.643 12.0714 11.4994V9.2495H13V11.4994C13 11.9272 12.857 12.2841 12.571 12.5701C12.285 12.8561 11.9278 12.9994 11.4994 13H1.50057Z" fill="#42767A"/>
</svg>
