<svg width="460" height="55" viewBox="0 0 460 55" fill="none" xmlns="http://www.w3.org/2000/svg">
<path d="M414.6 52.7152H421.897V1.14856H414.6V52.7152Z" fill="white"/>
<path fill-rule="evenodd" clip-rule="evenodd" d="M0 1.66418V52.8956H7.65423V34.5255H21.3049C24.1722 34.5255 26.7722 33.8424 29.105 32.4762C31.4377 31.0613 33.2601 29.1096 34.5723 26.6212C35.933 24.084 36.6134 21.2297 36.6134 18.0583C36.6134 14.8868 35.933 12.0569 34.5723 9.56847C33.2601 7.08008 31.4377 5.1528 29.105 3.78663C26.7722 2.37167 24.1722 1.66418 21.3049 1.66418H0ZM7.65423 8.98296H22.4524L29.6423 18.0583L22.4524 27.2067H7.65423V8.98296Z" fill="white"/>
<path d="M444.923 53.3484C441.654 53.3484 438.849 52.7629 436.507 51.5919C434.214 50.4209 432.482 48.9571 431.311 47.2007C430.14 45.3954 429.554 43.5657 429.554 41.7116H436.726C436.726 43.2242 437.434 44.5171 438.849 45.5905C440.313 46.664 442.337 47.2007 444.923 47.2007C447.509 47.2007 449.461 46.7615 450.778 45.8833C452.145 44.9563 452.828 43.8097 452.828 42.4435C452.828 41.1261 452.389 40.0771 451.51 39.2965C450.632 38.5158 449.193 37.9547 447.192 37.6132L441.191 36.5885C433.823 35.32 430.14 31.807 430.14 26.0496C430.14 22.8782 431.384 20.2678 433.872 18.2186C436.361 16.1205 439.922 15.0715 444.557 15.0715C447.631 15.0715 450.29 15.6326 452.535 16.7548C454.828 17.877 456.56 19.3164 457.731 21.0729C458.951 22.8294 459.561 24.6834 459.561 26.6351H452.462C452.462 25.1226 451.73 23.854 450.266 22.8294C448.851 21.756 446.948 21.2192 444.557 21.2192C442.216 21.2192 440.41 21.6828 439.142 22.6098C437.922 23.5368 437.312 24.6834 437.312 26.0496C437.312 27.1718 437.727 28.0988 438.556 28.8307C439.434 29.5626 440.825 30.0993 442.728 30.4408L448.802 31.4654C452.608 32.0997 455.414 33.3195 457.219 35.1248C459.073 36.9301 460 39.3452 460 42.3703C460 45.5418 458.683 48.1765 456.048 50.2745C453.462 52.3238 449.754 53.3484 444.923 53.3484Z" fill="white"/>
<path d="M320.906 52.7152H313.816V15.5547H320.906V52.7152ZM321.264 8.53633H313.529V1.14856H321.264V8.53633Z" fill="white"/>
<path d="M252.165 52.6165V15.8034H258.386L259.118 19.6091H259.484C260.411 18.4381 261.704 17.3891 263.362 16.4621C265.021 15.535 266.827 15.0715 268.778 15.0715C271.315 15.0715 273.511 15.6814 275.365 16.9012C277.268 18.121 278.585 19.4628 279.317 20.9265H279.683C280.659 19.414 282.196 18.0722 284.294 16.9012C286.441 15.6814 288.832 15.0715 291.466 15.0715C294.003 15.0715 296.272 15.7058 298.273 16.9744C300.322 18.1942 301.932 19.9019 303.103 22.0975C304.274 24.2931 304.86 26.8059 304.86 29.6358V52.6165H297.614V30.0749C297.614 27.5377 296.931 25.5373 295.565 24.0735C294.247 22.6098 292.467 21.8779 290.222 21.8779C288.027 21.8779 286.124 22.683 284.514 24.2931C282.903 25.8544 282.098 27.7817 282.098 30.0749V52.6165H274.926V30.0749C274.926 27.5865 274.243 25.6105 272.877 24.1467C271.511 22.6342 269.705 21.8779 267.461 21.8779C265.265 21.8779 263.362 22.683 261.752 24.2931C260.191 25.8544 259.41 27.7817 259.41 30.0749V52.6165H252.165Z" fill="white"/>
<path d="M226.557 53.3484C223.141 53.3484 220.043 52.5433 217.262 50.9332C214.481 49.2743 212.285 47.0055 210.675 44.1268C209.114 41.1993 208.333 37.8815 208.333 34.1734C208.333 30.514 209.114 27.245 210.675 24.3663C212.285 21.4388 214.481 19.17 217.262 17.5599C220.043 15.901 223.141 15.0715 226.557 15.0715C229.826 15.0715 232.778 15.8522 235.412 17.4135C238.096 18.9748 240.194 21.1217 241.707 23.854C243.268 26.5863 244.049 29.6602 244.049 33.0756C244.049 34.7833 243.927 36.0762 243.683 36.9545H215.579C215.92 39.9307 217.116 42.3703 219.165 44.2732C221.214 46.1273 223.678 47.0543 226.557 47.0543C228.606 47.0543 230.411 46.5908 231.973 45.6637C233.534 44.7367 234.705 43.5413 235.486 42.0776H243.024C241.902 45.3466 239.926 48.0545 237.096 50.2013C234.266 52.2994 230.753 53.3484 226.557 53.3484ZM236.876 31.3922C236.632 28.4648 235.559 26.0496 233.656 24.1467C231.753 22.2439 229.387 21.2924 226.557 21.2924C223.629 21.2924 221.165 22.2439 219.165 24.1467C217.165 26.0496 215.969 28.4648 215.579 31.3922H236.876Z" fill="white"/>
<path d="M168.107 52.8951V1.66418H175.353V19.8878H175.719C176.597 18.7168 177.963 17.6678 179.817 16.7407C181.72 15.8137 183.867 15.3502 186.258 15.3502C189.088 15.3502 191.6 16.0089 193.796 17.3262C196.04 18.5948 197.772 20.4001 198.992 22.7421C200.261 25.0841 200.895 27.7676 200.895 30.7927V52.8951H193.65V31.3781C193.65 28.7434 192.796 26.5478 191.088 24.7913C189.38 23.0348 187.258 22.1566 184.721 22.1566C183.013 22.1566 181.427 22.5713 179.964 23.4008C178.549 24.2302 177.426 25.3524 176.597 26.7674C175.767 28.1823 175.353 29.7192 175.353 31.3781V52.8951H168.107Z" fill="white"/>
<path d="M86.1163 52.6165V15.8034H92.3372L93.0691 19.6091H93.435C94.3621 18.4381 95.777 17.3891 97.6799 16.4621C99.5827 15.535 101.778 15.0715 104.267 15.0715C107.097 15.0715 109.609 15.7302 111.805 17.0476C114.049 18.3162 115.781 20.1214 117.001 22.4634C118.27 24.8054 118.904 27.4889 118.904 30.514V52.6165H111.659V31.0995C111.659 28.4648 110.805 26.2692 109.097 24.5127C107.389 22.7562 105.267 21.8779 102.73 21.8779C101.022 21.8779 99.4364 22.2927 97.9726 23.1221C96.5577 23.9516 95.4355 25.0738 94.606 26.4887C93.7766 27.9037 93.3618 29.4406 93.3618 31.0995V52.6165H86.1163Z" fill="white"/>
<path fill-rule="evenodd" clip-rule="evenodd" d="M58.3426 53.1916C55.1188 53.1916 52.1679 52.3984 49.4897 50.8118C46.8611 49.2253 44.7781 46.9898 43.2406 44.1052C41.7031 41.2206 40.9344 37.9514 40.9344 34.2976C40.9344 30.6437 41.7031 27.3986 43.2406 24.5621C44.7781 21.6775 46.8611 19.4419 49.4897 17.8554C52.1679 16.2688 55.1188 15.4756 58.3426 15.4756C63.1038 15.4756 66.9475 17.2544 69.8737 20.8121H70.2456L70.9896 16.1967H77.3131V52.4705H70.9896L70.2456 47.8551H69.8737C66.9475 51.4128 63.1038 53.1916 58.3426 53.1916ZM48.7928 28.3001L58.8783 22.8928L69.0473 28.3001V40.4993L58.8783 46.3797L48.7928 40.4993V28.3001Z" fill="white"/>
<path fill-rule="evenodd" clip-rule="evenodd" d="M387.353 53.1916C384.129 53.1916 381.178 52.3984 378.5 50.8118C375.871 49.2253 373.788 46.9898 372.251 44.1052C370.713 41.2206 369.944 37.9514 369.944 34.2976C369.944 30.6437 370.713 27.3986 372.251 24.5621C373.788 21.6775 375.871 19.4419 378.5 17.8554C381.178 16.2688 384.129 15.4756 387.353 15.4756C392.114 15.4756 395.957 17.2544 398.884 20.8121H399.256L400 16.1967H406.323V52.4705H400L399.256 47.8551H398.884C395.957 51.4128 392.114 53.1916 387.353 53.1916ZM377.803 28.3001L387.888 22.8928L398.057 28.3001V40.4993L387.888 46.3797L377.803 40.4993V28.3001Z" fill="white"/>
<path d="M134.335 51.4947C137.13 53.0659 140.244 53.8515 143.676 53.8515C148.139 53.8515 151.865 52.6136 154.857 50.1377C157.848 47.6618 159.785 44.4717 160.667 40.5674H154.675L143.676 47.546L132.972 40.8411V29.2237L143.676 22.5395L154.675 29.4973H160.667C159.785 25.6883 157.848 22.5696 154.857 20.1413C151.865 17.713 148.139 16.4989 143.676 16.4989C140.244 16.4989 137.13 17.3083 134.335 18.9272C131.54 20.4984 129.333 22.7124 127.715 25.5692C126.146 28.3784 125.361 31.5685 125.361 35.1395C125.361 38.7581 126.146 41.9958 127.715 44.8526C129.333 47.6618 131.54 49.8758 134.335 51.4947Z" fill="white"/>
<path d="M337.472 51.4947C340.267 53.0659 343.381 53.8515 346.813 53.8515C351.275 53.8515 355.002 52.6136 357.993 50.1377C360.985 47.6618 362.922 44.4717 363.804 40.5674H357.812L346.813 47.546L336.109 40.8411V29.2237L346.813 22.5395L357.812 29.4973H363.804C362.922 25.6883 360.985 22.5696 357.993 20.1413C355.002 17.713 351.275 16.4989 346.813 16.4989C343.381 16.4989 340.267 17.3083 337.472 18.9272C334.677 20.4984 332.47 22.7124 330.852 25.5692C329.283 28.3784 328.498 31.5685 328.498 35.1395C328.498 38.7581 329.283 41.9958 330.852 44.8526C332.47 47.6618 334.677 49.8758 337.472 51.4947Z" fill="white"/>
</svg>
