<svg width="13" height="12" viewBox="0 0 13 12" fill="none" xmlns="http://www.w3.org/2000/svg">
<path d="M11.1426 2.14286C11.1426 2.26455 11.0856 2.42574 10.8876 2.62076C10.6879 2.81752 10.3732 3.01772 9.94403 3.19655C9.08787 3.55328 7.87044 3.78571 6.49979 3.78571C5.12915 3.78571 3.91171 3.55328 3.05555 3.19655C2.62638 3.01772 2.31171 2.81752 2.11198 2.62076C1.91401 2.42574 1.85693 2.26455 1.85693 2.14286C1.85693 2.02117 1.91401 1.85998 2.11198 1.66496C2.31171 1.4682 2.62638 1.26799 3.05555 1.08917C3.91171 0.732432 5.12915 0.5 6.49979 0.5C7.87044 0.5 9.08787 0.732432 9.94403 1.08917C10.3732 1.26799 10.6879 1.4682 10.8876 1.66496C11.0856 1.85998 11.1426 2.02117 11.1426 2.14286Z" stroke="#255151"/>
<path d="M11.1426 9.85721C11.1426 9.9789 11.0856 10.1401 10.8876 10.3351C10.6879 10.5319 10.3732 10.7321 9.94403 10.9109C9.08787 11.2676 7.87044 11.5001 6.49979 11.5001C5.12915 11.5001 3.91171 11.2676 3.05555 10.9109C2.62638 10.7321 2.31171 10.5319 2.11198 10.3351C1.91401 10.1401 1.85693 9.9789 1.85693 9.85721C1.85693 9.73552 1.91401 9.57433 2.11198 9.37931C2.31171 9.18255 2.62638 8.98234 3.05555 8.80352C3.91171 8.44679 5.12915 8.21436 6.49979 8.21436C7.87044 8.21436 9.08787 8.44679 9.94403 8.80352C10.3732 8.98234 10.6879 9.18255 10.8876 9.37931C11.0856 9.57433 11.1426 9.73552 11.1426 9.85721Z" stroke="#255151"/>
<line x1="11.2856" y1="2.14307" x2="11.2856" y2="9.85735" stroke="#255151"/>
<line x1="1.85693" y1="2.14307" x2="1.85693" y2="9.85735" stroke="#255151"/>
</svg>
